<svg width="138" height="54" viewBox="0 0 138 54" fill="none" xmlns="http://www.w3.org/2000/svg">
<mask id="path-1-inside-1" fill="white">
<path fill-rule="evenodd" clip-rule="evenodd" d="M34.679 14.0001H131.304C134.618 14.0001 137.304 16.6864 137.304 20.0001V48.0001C137.304 51.3138 134.618 54.0001 131.304 54.0001H6.30387C2.99016 54.0001 0.303864 51.3138 0.303864 48.0001V20.0001C0.303864 16.6864 2.99015 14.0001 6.30386 14.0001H19.3915L27.0352 0.760742L34.679 14.0001Z"/>
</mask>
<path d="M34.679 14.0001L33.8129 14.5001L34.1016 15.0001H34.679V14.0001ZM19.3915 14.0001V15.0001H19.9689L20.2575 14.5001L19.3915 14.0001ZM27.0352 0.760742L27.9013 0.260742L27.0352 -1.23926L26.1692 0.260742L27.0352 0.760742ZM34.679 15.0001H131.304V13.0001H34.679V15.0001ZM131.304 15.0001C134.065 15.0001 136.304 17.2386 136.304 20.0001H138.304C138.304 16.1341 135.17 13.0001 131.304 13.0001V15.0001ZM136.304 20.0001V48.0001H138.304V20.0001H136.304ZM136.304 48.0001C136.304 50.7615 134.065 53.0001 131.304 53.0001V55.0001C135.17 55.0001 138.304 51.8661 138.304 48.0001H136.304ZM131.304 53.0001H6.30387V55.0001H131.304V53.0001ZM6.30387 53.0001C3.54244 53.0001 1.30386 50.7615 1.30386 48.0001H-0.696136C-0.696136 51.8661 2.43787 55.0001 6.30387 55.0001V53.0001ZM1.30386 48.0001V20.0001H-0.696136V48.0001H1.30386ZM1.30386 20.0001C1.30386 17.2386 3.54244 15.0001 6.30386 15.0001V13.0001C2.43787 13.0001 -0.696136 16.1341 -0.696136 20.0001H1.30386ZM6.30386 15.0001H19.3915V13.0001H6.30386V15.0001ZM20.2575 14.5001L27.9013 1.26074L26.1692 0.260742L18.5255 13.5001L20.2575 14.5001ZM26.1692 1.26074L33.8129 14.5001L35.545 13.5001L27.9013 0.260742L26.1692 1.26074Z" fill="white" mask="url(#path-1-inside-1)"/>
</svg>
